<svg xmlns="http://www.w3.org/2000/svg" width="29.057" height="25.405" viewBox="0 0 29.057 25.405">
  <g>
    <path fill="rgb(255,176,5)" fill-rule="evenodd" d="M25.51718491 10.55128794v9.68689545c0 .97302122-.7874546 1.76181661-1.75909698 1.76181661H5.28756957c-.97153892 0-1.75909699-.78861404-1.75909699-1.76181661v-9.68689545h6.11410375l-.84788475 4.9681389c-.15495575.90778699.37761086 1.31178328 1.19235733.9125539l.02478257-.01235771 4.51099727-2.28459725 4.51099727 2.28459725c.82046353.41552498 1.3626793.0246118 1.22161525-.87286413l-.00447535-.02733206-.84793649-4.9681389h6.11415548z"/>
    <path fill="rgb(255,229,92)" fill-rule="evenodd" d="M14.52282875 13.5170104l-4.64988833 2.44770875c-.429944.22629907-.71189103.02111434-.62978259-.45816817l.88803355-5.18433417-3.7618289-3.67156313c-.3478097-.33946155-.2403237-.6713323.24058238-.74130755l5.19870071-.75638553 2.3249571-4.71683942c.214972-.43612118.5635319-.43606937.77845215 0l2.3249571 4.71683942 5.19870071.75638553c.48069913.06994934.58834034.40189781.24058239.74133346l-3.7618289 3.67156312.88803354 5.18428236c.08210844.47938614-.1996575.68459678-.62978259.45819408l-4.64988832-2.44770874z"/>
    <path fill="rgb(77,77,77)" fill-rule="evenodd" d="M18.60837078 15.82967631c.08278338.05278778.17861684.08065033.2771988.08065033.11324755 0 .22149467-.03617096.3129711-.10468038l.00207711-.0015386c.17332967-.13178761.25433667-.35880025.20574506-.57663726l-1.14688937-5.14131165 3.82621893-3.45601908c.16249656-.1465861.2248586-.3804245.15825144-.59342194l-.00017484-.00053151c-.0669918-.21364085-.24881172-.36375173-.46257146-.38238271l-5.0439396-.45150757-1.9706459-4.86167908C14.6833741.13402557 14.48930486-.00025177 14.2743737 0c-.21487172-.00036367-.40893396.13385773-.49215094.34039307l-1.97073333 4.8618749-5.04328569.45145161c-.21458498.0187149-.39642937.16888174-.46342118.38297018-.06660016.2130254-.00421365.44691976.15831439.59353383l3.826135 3.45596314L9.142409 15.2271347c-.04888535.21783702.03200276.44498953.2053744.57680512l.00275198.0020701c.17376328.12938182.40444756.13920085.58856837.02436575l4.33516153-2.72563426 4.3341055 2.7249349zm.19369507-.59638723l-4.52780056-2.84670766-4.52758376 2.8465678 1.19767698-5.36893973-3.99602032-3.609375 5.26805337-.47159322L14.2743737.70607503l2.05798213 5.07716624 5.26796595.47159322-3.9959329 3.60940298 1.19767698 5.36905161z"/>
    <path fill-opacity="0" fill-rule="evenodd" stroke="rgb(77,77,77)" stroke-linecap="butt" stroke-linejoin="miter" stroke-width="1.5" d="M3.52847258 10.60688242v9.28102212s.06227982.69786435.67996274 1.3124006c.61768292.61453625 1.31901111.67638985 1.31901111.67638985h18.65708925s.61143521-.0460685 1.02322383-.66060476c.41178861-.61453625.3094254-1.3281857.3094254-1.3281857v-9.28102211"/>
  </g>
</svg>
