<svg width="29" height="23" viewBox="0 0 29 23" fill="none" xmlns="http://www.w3.org/2000/svg">
<path d="M11.7985 9.34959C12.4045 9.78528 12.7721 10.4791 12.7846 11.2143L12.8312 13.9342C12.8342 14.05 12.8136 14.1651 12.7707 14.2727C12.7278 14.3803 12.6635 14.4781 12.5816 14.5601C12.4998 14.642 12.4022 14.7065 12.2947 14.7497C12.1872 14.7928 12.0721 14.8136 11.9563 14.8109C11.718 14.805 11.4911 14.7077 11.3226 14.5392C11.154 14.3707 11.0567 14.1438 11.0508 13.9055L11.0024 11.1838C11.002 11.1166 10.988 11.0501 10.9612 10.9885C10.9344 10.9268 10.8954 10.8713 10.8464 10.8252L9.14672 9.7781C8.62318 9.45537 8.54967 8.72385 9.00328 8.33657L18.1223 0.549758C18.2868 0.413516 18.4948 0.340922 18.7084 0.3452C18.922 0.349478 19.1269 0.430345 19.2859 0.573066L28.5913 8.67364C29.0485 9.07168 29.0091 9.78528 28.5106 10.0972L26.9651 11.0637C26.9028 11.1073 26.8522 11.1656 26.8178 11.2335C26.7834 11.3013 26.7662 11.3767 26.7679 11.4527L26.9275 20.7761C26.9346 21.07 26.882 21.3623 26.7728 21.6353C26.6635 21.9082 26.5 22.1562 26.2922 22.364C26.0843 22.5719 25.8363 22.7354 25.5634 22.8446C25.2904 22.9539 24.9981 23.0065 24.7042 22.9994L12.3382 22.7878C11.5851 22.7752 11.1566 21.8931 11.6246 21.3194L13.7044 18.7662C13.7796 18.6769 13.8717 18.6033 13.9754 18.5498C14.0792 18.4962 14.1925 18.4638 14.3089 18.4543C14.4252 18.4448 14.5423 18.4584 14.6534 18.4944C14.7644 18.5304 14.8672 18.588 14.9559 18.664C15.1405 18.8119 15.2593 19.0267 15.2865 19.2617C15.3136 19.4967 15.2471 19.7329 15.1011 19.9191L14.1903 21.0379L24.6737 21.2172C24.7362 21.2186 24.7983 21.2074 24.8563 21.1841C24.9143 21.1608 24.967 21.126 25.0111 21.0817C25.0552 21.0374 25.0898 20.9846 25.1129 20.9266C25.136 20.8685 25.147 20.8063 25.1453 20.7438L24.9857 11.4222C24.9749 10.6871 25.3192 10.0058 25.9467 9.56833L26.5312 9.20256L18.7319 2.41264L11.1064 8.92466L11.7967 9.35138L11.7985 9.34959ZM3.36264 10.4218C4.02783 10.8969 4.43304 11.6589 4.44559 12.4657L4.60696 21.8375C4.60992 21.9536 4.58921 22.0691 4.54609 22.1769C4.50296 22.2848 4.43833 22.3827 4.35612 22.4647C4.27392 22.5468 4.17587 22.6112 4.06795 22.6541C3.96003 22.697 3.8445 22.7175 3.72841 22.7143C3.48983 22.7084 3.26268 22.6108 3.0941 22.4419C2.92551 22.273 2.82842 22.0456 2.82296 21.807L2.66518 12.4353C2.66468 12.3323 2.64199 12.2306 2.59868 12.1372C2.55536 12.0437 2.49243 11.9607 2.41417 11.8938L0.441919 10.68C-0.0816244 10.3572 -0.153343 9.62749 0.298482 9.24022L10.8769 0.20551C11.0416 0.0687847 11.25 -0.00410154 11.464 0.000178315C11.678 0.00445817 11.8833 0.0856182 12.0423 0.228819L14.28 2.17597C14.4609 2.32859 14.5742 2.54658 14.595 2.78238C14.6158 3.01819 14.5425 3.25265 14.3911 3.43462C14.3134 3.52186 14.2192 3.59286 14.1139 3.64354C14.0087 3.69421 13.8944 3.72356 13.7778 3.72989C13.6611 3.73623 13.5443 3.71942 13.4342 3.68044C13.3241 3.64145 13.2227 3.58107 13.136 3.50276L11.4865 2.06839L2.40162 9.82651L3.36444 10.4218H3.36264Z" fill="#515151"/>
</svg>
