<svg width="25" height="25" viewBox="0 0 25 25" fill="none" xmlns="http://www.w3.org/2000/svg">
<path d="M22.998 4.06006L19.3774 0.354004C19.1309 0.0244141 18.6377 0.0244141 18.3081 0.354004C18.0591 0.683594 18.0591 1.09375 18.3081 1.42334L20.6934 3.80859H9.25293C5.22217 3.80859 1.92871 7.10205 1.92871 11.2134C1.92871 11.6235 2.2583 11.9531 2.66846 11.9531C3.07861 11.9531 3.4082 11.6235 3.4082 11.2134C3.4082 7.91992 6.04248 5.28564 9.25049 5.28564H20.8569L18.1445 8.09082C17.8955 8.33984 17.8955 8.83057 18.1445 9.16016C18.3936 9.48975 18.8843 9.48975 19.2139 9.16016L23.0005 5.29297C23.1641 5.04395 23.2495 4.88281 23.2495 4.71436C23.2471 4.47021 23.2471 4.22119 22.998 4.06006Z" fill="#DF8949"/>
<path d="M4.15279 20.7666L6.86763 23.5645C7.11665 23.8135 7.11665 24.3042 6.86763 24.6338C6.61861 24.9634 6.12789 24.9634 5.7983 24.6338L2.09712 20.6812C1.8481 20.4321 1.8481 20.1074 1.93355 19.8584C1.93355 19.6948 2.01412 19.6094 2.09712 19.4482L5.72017 15.7446C5.96919 15.4956 6.45992 15.4956 6.78951 15.7446C7.03853 16.0742 7.03853 16.4844 6.78951 16.814L4.40425 19.1992H15.1025C18.3105 19.1992 20.9448 16.5649 20.9448 13.2715C20.9448 12.8613 21.2744 12.5317 21.6845 12.5317C22.0947 12.5317 22.4243 12.8613 22.4243 13.2715C22.4243 17.3877 19.1308 20.6763 15.1001 20.6763L4.15279 20.7666Z" fill="#515151"/>
</svg>
